Run_30001
nRows=4
nColumns=164

# SIMM Motion File Header:
name Run_30001
datacolumns 164
datarows 4
otherdata 1
range 1.39000000 1.42000000
endheader
time	pelvis_tilt	pelvis_list	pelvis_rotation	pelvis_tx	pelvis_ty	pelvis_tz	hip_flexion_r	hip_adduction_r	hip_rotation_r	knee_angle_r	ankle_angle_r	hip_flexion_l	hip_adduction_l	hip_rotation_l	knee_angle_l	ankle_angle_l	lumbar_extension	lumbar_bending	lumbar_rotation	arm_flex_r	arm_add_r	arm_rot_r	elbow_flex_r	pro_sup_r	arm_flex_l	arm_add_l	arm_rot_l	elbow_flex_l	pro_sup_l	subtalar_angle_r	mtp_angle_r	subtalar_angle_l	mtp_angle_l	wrist_flex_r	wrist_dev_r	wrist_flex_l	wrist_dev_l	LASI_tx	LASI_ty	LASI_tz	RASI_tx	RASI_ty	RASI_tz	LPSI_tx	LPSI_ty	LPSI_tz	RPSI_tx	RPSI_ty	RPSI_tz	RTH1_tx	RTH1_ty	RTH1_tz	RTH2_tx	RTH2_ty	RTH2_tz	RTH3_tx	RTH3_ty	RTH3_tz	LTH1_tx	LTH1_ty	LTH1_tz	LTH2_tx	LTH2_ty	LTH2_tz	LTH3_tx	LTH3_ty	LTH3_tz	RTB1_tx	RTB1_ty	RTB1_tz	RTB2_tx	RTB2_ty	RTB2_tz	RTB3_tx	RTB3_ty	RTB3_tz	LTB1_tx	LTB1_ty	LTB1_tz	LTB2_tx	LTB2_ty	LTB2_tz	LTB3_tx	LTB3_ty	LTB3_tz	RCAL_tx	RCAL_ty	RCAL_tz	RTOE_tx	RTOE_ty	RTOE_tz	RMT5_tx	RMT5_ty	RMT5_tz	LCAL_tx	LCAL_ty	LCAL_tz	LTOE_tx	LTOE_ty	LTOE_tz	LACR_tx	LACR_ty	LACR_tz	RACR_tx	RACR_ty	RACR_tz	CLAV_tx	CLAV_ty	CLAV_tz	C7_tx	C7_ty	C7_tz	RUA1_tx	RUA1_ty	RUA1_tz	RUA2_tx	RUA2_ty	RUA2_tz	RUA3_tx	RUA3_ty	RUA3_tz	RLEL_tx	RLEL_ty	RLEL_tz	RMEL_tx	RMEL_ty	RMEL_tz	LUA1_tx	LUA1_ty	LUA1_tz	LUA2_tx	LUA2_ty	LUA2_tz	LUA3_tx	LUA3_ty	LUA3_tz	LLEL_tx	LLEL_ty	LLEL_tz	LMEL_tx	LMEL_ty	LMEL_tz	RFAsuperior_tx	RFAsuperior_ty	RFAsuperior_tz	RFAradius_tx	RFAradius_ty	RFAradius_tz	RFAulna_tx	RFAulna_ty	RFAulna_tz	LFAsuperior_tx	LFAsuperior_ty	LFAsuperior_tz	LFAradius_tx	LFAradius_ty	LFAradius_tz	LFAulna_tx	LFAulna_ty	LFAulna_tz	LMT5_tx	LMT5_ty	LMT5_tz
      1.39000000	     -6.73728695	      5.75620829	      1.08069791	      0.73482816	      1.05950959	     -0.32239420	     -7.54377136	     -2.65122951	     -5.29194011	    -32.75883699	    -23.46036548	     30.26575139	      9.03516294	     -2.46310903	    -25.37691424	     -8.00298554	     -0.81097014	     -3.68112987	      6.53955492	    -17.53305536	    -17.36742908	     -1.53755200	     90.76965562	     86.89165734	    -41.39521387	    -34.68089706	     12.09701755	     99.16360828	     72.22096951	      0.00000000	      0.00000000	      0.00000000	      0.00000000	      0.00000000	      0.00000000	      0.00000000	      0.00000000	      0.73684754	      1.07228049	     -0.44421395	      0.73806467	      1.04295433	     -0.19971032	      0.55889903	      1.14448110	     -0.36085932	      0.56370049	      1.13838376	     -0.27583073	      0.64397158	      0.91512464	     -0.14636255	      0.65867534	      0.77032939	     -0.16986247	      0.55205562	      0.69148450	     -0.18404794	      0.69319595	      0.95695792	     -0.51161840	      0.79903066	      0.87006140	     -0.48541506	      0.76810638	      0.71488780	     -0.47415648	      0.48129386	      0.44795209	     -0.24304161	      0.37810276	      0.40476716	     -0.19633801	      0.33451598	      0.31073529	     -0.25530294	      0.86101517	      0.50054641	     -0.40962621	      0.80488467	      0.42046162	     -0.47362002	      0.84422656	      0.29508359	     -0.39609860	      0.16276605	      0.32198272	     -0.28454473	      0.27481897	      0.11768066	     -0.28603049	      0.22049023	      0.11640743	     -0.21098555	      0.71987687	      0.14866619	     -0.37551703	      0.94978508	      0.14021882	     -0.36740037	      0.69194125	      1.59903463	     -0.47409544	      0.71643983	      1.56887323	     -0.14246481	      0.78228345	      1.54064443	     -0.29739545	      0.64470584	      1.61363782	     -0.31859916	      0.66357313	      1.46335124	     -0.05931856	      0.58470346	      1.39367589	     -0.07709307	      0.62684780	      1.35300182	     -0.02554006	      0.61251092	      1.25806246	      0.00061452	      0.57158425	      1.23991242	     -0.07005455	      0.60107293	      1.54466747	     -0.56540444	      0.51446303	      1.49695669	     -0.54307935	      0.52586050	      1.46286075	     -0.61569278	      0.47997381	      1.39097452	     -0.65753710	      0.42889579	      1.38152117	     -0.59772711	      0.67448519	      1.20694994	     -0.01412110	      0.84679310	      1.16897154	     -0.12165839	      0.81794678	      1.10958403	     -0.09270715	      0.53809951	      1.28028593	     -0.63649868	      0.63902254	      1.19794920	     -0.54420799	      0.58701598	      1.15981369	     -0.56431740	      0.92409564	      0.09329949	     -0.44170306
      1.40000000	     -6.80640494	      5.15700595	      1.39487969	      0.73534519	      1.05851416	     -0.32349793	     -6.61486834	     -1.88355821	     -4.58113216	    -36.78598330	    -23.05547570	     28.88370299	      8.89512465	     -1.75566000	    -20.64705592	     -9.29775729	     -0.56338524	     -3.16669240	      6.24804931	    -18.12565732	    -17.31484175	     -1.53780999	     90.48995022	     86.81492449	    -41.31611454	    -34.46995298	     11.95113826	     99.38709618	     72.29872836	      0.00000000	      0.00000000	      0.00000000	      0.00000000	      0.00000000	      0.00000000	      0.00000000	      0.00000000	      0.73716709	      1.07085259	     -0.44595148	      0.73918909	      1.04377486	     -0.20035170	      0.55920835	      1.14339557	     -0.36128839	      0.56424509	      1.13912982	     -0.27581911	      0.64742672	      0.91470054	     -0.14674729	      0.66439267	      0.76933488	     -0.17143988	      0.55922662	      0.68921141	     -0.18376769	      0.69163876	      0.95392949	     -0.51213318	      0.79475323	      0.86355821	     -0.48668983	      0.76025941	      0.70945807	     -0.47357659	      0.48214898	      0.44846095	     -0.24300555	      0.37709686	      0.41077033	     -0.19586252	      0.32733168	      0.32054017	     -0.25551454	      0.85810276	      0.49709635	     -0.40844646	      0.80549840	      0.41418367	     -0.47139945	      0.85353620	      0.29133276	     -0.39435071	      0.15522743	      0.34089786	     -0.28064546	      0.25852119	      0.13213818	     -0.28905361	      0.20521500	      0.13166076	     -0.21196937	      0.73724766	      0.13956103	     -0.37195280	      0.96694501	      0.14079157	     -0.36348308	      0.69118375	      1.59745235	     -0.47583603	      0.71625534	      1.56833523	     -0.14421377	      0.78193317	      1.54010196	     -0.29909996	      0.64436721	      1.61283751	     -0.32024668	      0.66285365	      1.46300745	     -0.06116161	      0.58364834	      1.39447807	     -0.07891910	      0.62487054	      1.35354980	     -0.02700032	      0.60985902	      1.25881395	     -0.00072227	      0.56894065	      1.24087162	     -0.07152422	      0.60039924	      1.54271148	     -0.56717116	      0.51380606	      1.49482582	     -0.54411937	      0.52504883	      1.46083423	     -0.61683949	      0.47949565	      1.38841090	     -0.65839568	      0.42884817	      1.37867801	     -0.59863638	      0.67198587	      1.20736725	     -0.01524189	      0.84334182	      1.16646828	     -0.12246892	      0.81371412	      1.10745825	     -0.09338590	      0.53896406	      1.27859636	     -0.63733324	      0.64077819	      1.19741984	     -0.54481415	      0.58912022	      1.15866407	     -0.56456864	      0.94351220	      0.09118544	     -0.43683189
      1.41000000	     -6.72958684	      4.64866696	      1.81124596	      0.73579248	      1.05640867	     -0.32479066	     -5.51132473	     -1.36395125	     -4.59307764	    -41.41316254	    -22.59138105	     27.74381378	      8.76009570	     -1.89705889	    -17.38760481	    -10.19522843	     -0.51609373	     -2.76906035	      5.74288634	    -18.70670160	    -17.26162985	     -1.48909193	     90.05395495	     86.47444975	    -40.94307978	    -34.33625425	     11.97979711	     99.57380573	     72.50331872	      0.00000000	      0.00000000	      0.00000000	      0.00000000	      0.00000000	      0.00000000	      0.00000000	      0.00000000	      0.73706909	      1.06775384	     -0.44758494	      0.74029379	      1.04332980	     -0.20144434	      0.55914697	      1.14063471	     -0.36161650	      0.56453776	      1.13800441	     -0.27602563	      0.65189545	      0.91265317	     -0.14736710	      0.67092059	      0.76718170	     -0.17292258	      0.56757833	      0.68533860	     -0.18371453	      0.69006648	      0.95008570	     -0.51258888	      0.79016757	      0.85641102	     -0.48784797	      0.75270477	      0.70350639	     -0.47289932	      0.48482817	      0.44797290	     -0.24308819	      0.37807502	      0.41639130	     -0.19552156	      0.32225087	      0.33024996	     -0.25539951	      0.85485114	      0.49343919	     -0.40713403	      0.80430715	      0.40844473	     -0.46872481	      0.85916106	      0.28794991	     -0.39227345	      0.15153126	      0.36048970	     -0.27901190	      0.24409809	      0.14659511	     -0.28900423	      0.19050254	      0.14874051	     -0.21115025	      0.74875275	      0.13322723	     -0.36627996	      0.97819294	      0.13944695	     -0.36242335	      0.69072149	      1.59471698	     -0.47780254	      0.71590539	      1.56668073	     -0.14587489	      0.78149437	      1.53823148	     -0.30070554	      0.64389314	      1.61106402	     -0.32208009	      0.66188552	      1.46174151	     -0.06267442	      0.58209354	      1.39418026	     -0.08067008	      0.62266359	      1.35292205	     -0.02858938	      0.60663371	      1.25843580	     -0.00211667	      0.56580025	      1.24079114	     -0.07309722	      0.60028235	      1.53915489	     -0.56926603	      0.51375576	      1.49081189	     -0.54586228	      0.52531460	      1.45679720	     -0.61856966	      0.48061185	      1.38366997	     -0.65990976	      0.43006713	      1.37353321	     -0.60044020	      0.66836410	      1.20610217	     -0.01626986	      0.83922756	      1.16189457	     -0.12260215	      0.80855048	      1.10338017	     -0.09362049	      0.54143393	      1.27480515	     -0.63843272	      0.64385081	      1.19511248	     -0.54515199	      0.59278395	      1.15563923	     -0.56488325	      0.95441952	      0.08909469	     -0.43513019
      1.42000000	     -6.45819016	      4.27611762	      2.28635948	      0.73616325	      1.05335848	     -0.32624232	     -4.37408807	     -1.16679780	     -5.10256883	    -46.42948561	    -21.93799445	     26.73600073	      8.71817946	     -2.76132796	    -15.48094484	    -10.63384964	     -0.71758724	     -2.53501657	      5.06044601	    -19.24222266	    -17.20093823	     -1.39474870	     89.43254189	     85.90094051	    -40.28688766	    -34.27721070	     12.16809337	     99.74671051	     72.75754084	      0.00000000	      0.00000000	      0.00000000	      0.00000000	      0.00000000	      0.00000000	      0.00000000	      0.00000000	      0.73668125	      1.06323822	     -0.44927075	      0.74139651	      1.04166639	     -0.20297151	      0.55879617	      1.13646118	     -0.36199230	      0.56434359	      1.13476906	     -0.27643028	      0.65713104	      0.90903515	     -0.14798487	      0.67803974	      0.76399190	     -0.17369223	      0.57691377	      0.68005496	     -0.18359847	      0.68850650	      0.94537579	     -0.51310661	      0.78555875	      0.84894949	     -0.48863496	      0.74627997	      0.69745378	     -0.47240193	      0.48931727	      0.44660506	     -0.24270422	      0.38092840	      0.42185912	     -0.19509486	      0.31951767	      0.33978549	     -0.25466760	      0.85113260	      0.48930571	     -0.40555519	      0.80141976	      0.40281816	     -0.46554746	      0.86100289	      0.28419476	     -0.38991064	      0.15123118	      0.38011923	     -0.27896932	      0.23225279	      0.16126122	     -0.28637865	      0.17776952	      0.16723957	     -0.20857570	      0.75434492	      0.12813623	     -0.35908461	      0.98368036	      0.13581832	     -0.36369329	      0.69047743	      1.59084534	     -0.47999028	      0.71528235	      1.56409903	     -0.14745520	      0.78091916	      1.53509239	     -0.30224768	      0.64336169	      1.60827225	     -0.32409526	      0.66052627	      1.45955533	     -0.06401522	      0.57996362	      1.39277896	     -0.08241422	      0.62020865	      1.35115522	     -0.03031454	      0.60287232	      1.25689274	     -0.00367016	      0.56221110	      1.23968143	     -0.07483007	      0.60064228	      1.53400288	     -0.57174370	      0.51430802	      1.48495157	     -0.54837015	      0.52662663	      1.45069351	     -0.62091114	      0.48324204	      1.37685038	     -0.66222189	      0.43241325	      1.36617631	     -0.60308186	      0.66360246	      1.20317819	     -0.01722361	      0.83446764	      1.15533653	     -0.12205704	      0.80244253	      1.09747910	     -0.09337639	      0.54541080	      1.26897392	     -0.63976172	      0.64824152	      1.19120789	     -0.54525266	      0.59797854	      1.15089076	     -0.56520744	      0.95765303	      0.08554587	     -0.43579540
